<?xml version="1.0" standalone="no"?>
<!DOCTYPE svg PUBLIC "-//W3C//DTD SVG 20010904//EN"
 "http://www.w3.org/TR/2001/REC-SVG-20010904/DTD/svg10.dtd">
<svg version="1.0" xmlns="http://www.w3.org/2000/svg"
 width="16.000000pt" height="16.000000pt" viewBox="0 0 16.000000 16.000000"
 preserveAspectRatio="xMidYMid meet">
<metadata>
Created by potrace 1.11, written by Peter Selinger 2001-2013
</metadata>
<g transform="translate(0.000000,16.000000) scale(0.002653,-0.002653)"
fill="#000000" stroke="none">
<path d="M3190 5973 c0 -56 35 -1079 50 -1493 6 -157 19 -527 29 -823 17 -507
19 -539 37 -551 1346 -950 2349 -1655 2351 -1652 7 6 -87 2839 -95 2873 -6 29
-118 111 -1186 863 -648 456 -1180 830 -1182 830 -2 0 -4 -21 -4 -47z"/>
<path d="M1693 4817 c33 -80 969 -2340 1024 -2472 41 -99 80 -185 86 -192 7
-6 368 -104 802 -218 435 -113 943 -247 1130 -296 696 -182 870 -227 872 -225
16 14 -198 118 -1272 616 -687 319 -1270 589 -1295 601 l-46 21 -40 191 c-23
106 -117 544 -209 974 l-169 781 -200 52 c-604 158 -687 178 -683 167z"/>
<path d="M1313 3246 c-161 -17 -293 -33 -293 -36 0 -4 419 -483 931 -1066 830
-944 934 -1059 957 -1057 15 2 317 32 672 68 2237 228 1998 201 1979 220 -10
9 -230 29 -769 70 -415 31 -1049 78 -1408 106 -359 27 -663 49 -675 49 -16 1
-34 20 -67 73 -99 161 -1013 1583 -1024 1593 -8 7 -95 2 -303 -20z"/>
<path d="M5315 1255 c-99 -29 -391 -114 -650 -190 -258 -75 -677 -197 -930
-271 -253 -74 -464 -136 -468 -137 -4 -1 61 -80 144 -175 83 -94 154 -170 158
-169 3 2 450 223 993 492 543 268 985 492 982 496 -9 15 -45 8 -229 -46z"/>
</g>
</svg>
