<?xml version="1.0" standalone="no"?>
<!DOCTYPE svg PUBLIC "-//W3C//DTD SVG 20010904//EN"
 "http://www.w3.org/TR/2001/REC-SVG-20010904/DTD/svg10.dtd">
<svg version="1.0" xmlns="http://www.w3.org/2000/svg"
 width="512.000000pt" height="512.000000pt" viewBox="0 0 512.000000 512.000000"
 preserveAspectRatio="xMidYMid meet">
<metadata>
Created by potrace 1.11, written by Peter Selinger 2001-2013
</metadata>
<g transform="translate(0.000000,512.000000) scale(0.100000,-0.100000)"
fill="#000000" stroke="none">
<path d="M1282 3787 c-700 -199 -1273 -366 -1273 -371 0 -8 139 -63 838 -332
l93 -36 0 -168 0 -169 -42 -28 c-55 -36 -98 -117 -98 -182 0 -68 39 -144 94
-183 l46 -32 0 -288 0 -288 85 0 85 0 0 290 0 290 39 25 c74 46 115 154 92
241 -14 51 -66 120 -103 135 l-28 11 0 139 c0 77 1 139 3 139 2 0 41 -15 88
-33 l84 -33 3 -302 2 -302 58 -45 c466 -369 1069 -509 1626 -376 265 64 490
170 728 345 l97 71 3 299 3 299 653 252 c359 138 653 256 653 261 0 5 -575
172 -1278 371 -703 199 -1278 362 -1278 362 0 -1 -573 -164 -1273 -362z m2300
-108 c554 -156 1004 -287 1000 -290 -4 -3 -460 -180 -1014 -394 l-1008 -387
-596 230 c-377 145 -590 232 -578 235 11 4 282 60 603 127 322 66 587 122 589
124 4 4 -25 157 -31 162 -2 2 -329 -64 -727 -147 -398 -82 -733 -150 -745
-151 -18 -1 -520 187 -537 201 -8 7 2011 581 2027 577 6 -1 463 -130 1017
-287z m-1022 -1252 c8 0 245 89 525 198 281 109 518 200 528 202 16 5 17 -10
17 -214 l0 -220 -62 -44 c-639 -452 -1420 -450 -2050 5 l-57 41 -1 226 0 226
543 -210 c298 -115 549 -210 557 -210z m-1493 97 c26 -41 -10 -83 -60 -70 -35
8 -46 49 -22 76 25 28 61 25 82 -6z"/>
<path d="M692 1164 l-23 -15 26 -31 c29 -34 28 -26 29 -323 1 -116 5 -216 10
-224 5 -8 19 -11 38 -7 16 3 54 0 86 -8 96 -22 152 -4 202 66 25 33 49 119 43
148 -1 3 -3 19 -6 36 -11 73 -57 129 -119 145 -38 10 -55 10 -102 -4 -31 -8
-56 -12 -57 -9 0 4 -3 54 -5 112 -3 58 -7 111 -9 118 -6 17 -86 15 -113 -4z
m276 -283 c59 -59 56 -206 -5 -273 -21 -23 -86 -24 -108 -1 -9 9 -20 26 -24
37 -13 33 -13 151 -1 195 20 74 86 94 138 42z"/>
<path d="M2340 1145 c-18 -22 -21 -62 -4 -76 22 -18 66 -14 85 10 17 21 16 56
-3 67 -23 14 -66 14 -78 -1z"/>
<path d="M4038 1153 c-23 -6 -23 -21 -1 -45 15 -17 17 -46 18 -246 0 -221 -1
-228 -23 -256 -32 -41 -16 -56 62 -56 76 0 93 9 76 39 -39 73 -26 249 22 288
29 24 72 26 98 5 24 -19 25 -26 26 -127 1 -59 -3 -125 -8 -147 -5 -22 -6 -43
-3 -47 10 -10 108 -9 128 1 17 9 24 38 9 38 -18 0 -29 49 -31 137 -3 145 -15
184 -60 208 -46 23 -72 24 -125 3 -51 -20 -65 -15 -66 22 -3 82 -14 167 -21
175 -10 10 -70 15 -101 8z"/>
<path d="M2892 1058 c-5 -7 -19 -32 -31 -55 -11 -23 -30 -44 -41 -48 -27 -8
-25 -21 5 -41 29 -19 37 -52 40 -168 1 -44 3 -93 4 -108 0 -14 13 -40 27 -57
21 -26 33 -31 67 -31 46 0 107 31 107 54 0 9 -12 14 -35 14 -66 0 -84 36 -80
165 2 98 10 112 66 127 22 6 39 17 39 25 0 16 -30 35 -55 35 -23 0 -40 20 -54
63 -13 38 -39 49 -59 25z"/>
<path d="M1203 962 c-38 -4 -43 -25 -15 -63 10 -13 28 -55 41 -94 81 -238 89
-253 132 -240 16 5 46 68 94 198 9 27 21 45 25 40 4 -4 19 -41 34 -82 52 -147
80 -182 115 -146 10 11 40 79 66 150 26 72 58 150 71 174 30 54 21 66 -41 62
-39 -3 -48 -17 -50 -78 -1 -62 -7 -86 -32 -145 -17 -41 -25 -45 -40 -25 -14
18 -43 128 -43 165 0 42 -30 72 -74 72 -44 0 -57 -18 -63 -87 -7 -87 -31 -165
-50 -161 -23 4 -48 81 -59 183 -4 28 -10 55 -15 61 -11 14 -51 20 -96 16z"/>
<path d="M1992 956 c-51 -13 -105 -61 -128 -114 -21 -49 -21 -150 1 -191 21
-42 72 -90 104 -98 78 -20 197 12 222 59 16 30 5 32 -58 11 -103 -35 -173 -5
-189 81 -7 41 15 55 96 61 149 12 173 22 164 73 -18 96 -105 145 -212 118z
m92 -58 c27 -24 41 -73 25 -84 -20 -12 -149 -11 -159 1 -15 19 8 73 39 90 37
20 66 18 95 -7z"/>
<path d="M2324 954 c-50 -17 -52 -22 -19 -48 l30 -24 0 -132 0 -132 -27 -22
c-47 -37 -36 -44 65 -44 50 1 98 3 105 5 8 4 2 16 -18 39 -32 37 -33 48 -32
296 1 75 -24 90 -104 62z"/>
<path d="M3295 960 c-98 -21 -159 -105 -158 -217 1 -119 74 -197 183 -196 65
0 143 32 161 65 16 29 5 33 -43 15 -63 -23 -100 -26 -135 -12 -55 23 -88 99
-57 129 8 9 18 16 22 17 10 1 79 6 140 10 64 3 93 26 86 66 -17 91 -102 144
-199 123z m86 -71 c25 -27 33 -58 18 -73 -8 -8 -146 -14 -156 -7 -8 5 -9 15
-5 47 1 6 13 23 27 38 34 37 78 35 116 -5z"/>
<path d="M3695 949 c-57 -28 -82 -56 -104 -113 -41 -113 -5 -223 88 -271 58
-29 121 -28 182 3 74 38 101 88 33 61 -45 -17 -66 -21 -109 -21 -34 1 -46 7
-76 41 -20 22 -36 46 -37 53 -4 70 -2 117 7 138 33 78 97 98 161 52 14 -10 35
-24 48 -31 20 -10 23 -9 31 11 5 14 4 32 -2 45 -21 46 -154 65 -222 32z"/>
<path d="M2606 647 c-19 -14 -25 -72 -8 -89 16 -16 62 -18 83 -5 24 15 25 69
3 91 -19 19 -54 21 -78 3z"/>
</g>
</svg>
